<svg width="121" height="125" viewBox="0 0 121 125" fill="none" xmlns="http://www.w3.org/2000/svg">
<path d="M11.479 26.6848C25.1399 11.2565 27.1256 12.5904 42.9124 3.92808C54.0586 -2.18789 56.9978 2.03814 56.9978 2.03814C56.9978 2.03814 35.2243 20.7958 23.7271 38.2147C12.2299 55.6337 22.0633 77.1741 31.8688 84.8215C42.9218 93.4418 61.9235 90.7768 76.9291 90.562C91.9348 90.3472 112.962 95.454 119.379 110.057C122.065 116.17 120.261 122.938 113.713 124.403C101.473 127.14 86.7207 113.069 61.1479 110.385C39.7192 108.135 20.6082 105.016 8.31977 86.9664C-3.6397 69.3997 -2.18189 42.1132 11.479 26.6848Z" fill="#080808"/>
</svg>
