<svg width="222" height="218" viewBox="0 0 222 218" fill="none" xmlns="http://www.w3.org/2000/svg">
<path d="M2.09607 116.653C3.44679 129.905 21.509 136.898 20.468 150.184C19.5327 162.124 -4.58471 166.409 8.22009 181.011C21.0249 195.613 42.1134 170.778 53.3148 183.895C59.8106 191.502 64.6231 205.965 71.6868 212.919C85.7881 226.801 88.5233 188.806 107.317 190.205C126.3 191.617 133.483 218.868 144.353 215.752C159.134 211.514 150.879 192.856 163.546 183.895C176.765 174.545 192.496 190.267 202.517 181.011C212.37 171.91 193.617 160.25 195.836 146.939C198.877 128.709 218.508 126.527 219.81 116.653C221.646 102.731 209.633 96.3359 207.528 79.337C205.66 64.2548 219.643 50.3833 212.556 37.3552C204.673 22.8627 187.383 38.1131 174.156 29.7096C163.299 22.8124 163.245 9.83259 151.803 4.22437C133.275 -4.85775 121.61 18.1794 101.367 17.6041C83.0767 17.0843 72.4284 -4.92724 56.0889 4.22437C45.8496 9.95928 46.2456 21.1526 37.7484 29.7096C26.9661 40.5677 8.22003 39.8573 5.65252 50.735C1.56029 68.0723 21.5936 69.4661 20.468 87.4493C19.4794 103.244 0.492557 100.922 2.09607 116.653Z" stroke="#F6DEB0" stroke-width="3"/>
</svg>
