<svg width="221" height="133" viewBox="0 0 221 133" fill="none" xmlns="http://www.w3.org/2000/svg">
<path d="M64 13.6389C-1 31.9999 -0.942533 97.3267 30 109.424C78.5541 128.407 178.5 127.491 199.5 107.5C220.5 87.5091 219.073 44.3679 195 27M195 27C119.267 -4.62271 64.8238 3.87365 24.39 33.6444C0.500193 51.234 -8.13204 85.4827 13.018 106.718C46.7128 140.548 142.882 127.918 185 109.424C227.118 90.9301 230.851 55.8222 195 27ZM195 27C163.767 4.46587 95.5702 -5.59864 57.6636 8.38449C28.2119 19.2488 4.07163 40.0334 5.85787 73.3386C7.73938 108.42 45.623 123.12 73 127.491C100.377 131.862 218.016 143.753 216.871 79.2025C215.756 16.2894 118 7.32899 118 7.32899" stroke="#D3540F" stroke-width="2"/>
</svg>
